<svg id="Group_4592" data-name="Group 4592" xmlns="http://www.w3.org/2000/svg" xmlns:xlink="http://www.w3.org/1999/xlink" width="13.751" height="11.059" viewBox="0 0 13.751 11.059">
  <defs>
    <clipPath id="clip-path">
      <rect id="Rectangle_542" data-name="Rectangle 542" width="13.751" height="11.059" fill="#71ce96"/>
    </clipPath>
  </defs>
  <g id="Group_4591" data-name="Group 4591" clip-path="url(#clip-path)">
    <path id="Path_876" data-name="Path 876" d="M13.138.3a.952.952,0,0,0-1.249.572A1.042,1.042,0,0,0,12.1,1.948L8.548,7.134l-1.271-5.2a1.011,1.011,0,0,0,.572-.921.965.965,0,1,0-1.929,0,1.011,1.011,0,0,0,.573.921L5.221,7.159,1.65,1.948A1.042,1.042,0,0,0,1.864.871.952.952,0,0,0,.614.3,1.024,1.024,0,0,0,.067,1.605a.968.968,0,0,0,.853.64l.727,6.167.278,2.647h9.927L12.2,7.695h-.016l.642-5.449a.968.968,0,0,0,.853-.64A1.024,1.024,0,0,0,13.138.3" transform="translate(0)" fill="#71ce96"/>
  </g>
</svg>
